<svg xmlns="http://www.w3.org/2000/svg" width="306.667" height="386.667" viewBox="0 0 230 290"><path d="M72 1.7v1.8L71 2 70 .5 69 2l-1 1.5v6.4l-1 .6-1 .6v6l1.5.5 1.5.6v1.7l-1.6.3-1.6.3L58.9 38l-6.8 17.5v11.2L52 78h2.3l-1.6 1.8-1.7 1.9v2.4l1.5.5 1.5.6v5.7l-1.5 5.8-1.5 5.7v7.9l-2.2 2.2-2.3 2.3-1.2 1.6-1.3 1.5v4.1h-4.1l-1.4 3.3-1.3 3.2-2.1 1.9-2.1 1.9v9.2l-.6 2.2-.6 2.3-3.5 2.1-3.4 2.1-3.4-.6-3.5-.7v5.1h-3.3l-1.3-1.8-1.3-1.7-.1-7.3V136H9.3l-.1 1.2-.2 1.3-.4 6.5-.4 6.5L8 156l-.2 4.5-.8-3-.8-3-.1 3.3-.1 3.3-3 1-3 1.1v1.3l2.2 4.2 2.2 4.2 8.6 4.7 8.5 4.8 5.3 3.3L32 189v14.3l1.4 1.1 1.4 1.1 3.1 15.5 3.1 15.4.8.7.7.6 4.2.7 4.2.6.3-6.7.3-6.8 1.5 4.7 1.4 4.8H70v-4h3v3.1l.9-.6 1-.5.3 2.2.3 2.3 4.2.3 4.1.3.8-2.3.8-2.3.7 8.5.6 8.5 1.8 4 1.9 3.9.7-2.4.6-2.5.1 5.8.1 5.9 2.7 6.4 2.7 6.4h2.3l1.9 5.6 1.9 5.5.8.6.9.5 1.8-1.6 1.8-1.6h1.4l-.6 1-.6 1h3.2l-.6-1-.6-1h1.7l1.2 1.2 1.1 1.1 1.6-1.3 1.5-1.2v2.2h3.1l-.6-1-.6-1h1.4l1.8 1.6 1.8 1.6.9-.5.8-.6 1.9-5.5 1.9-5.6h2.3l2.7-6.4 2.7-6.4.1-5.9.1-5.8.6 2.5.7 2.4 1.9-3.9 1.8-4 .6-8.5.7-8.5.8 2.3.8 2.3 4.1-.3 4.2-.3.3-2.3.3-2.2 1 .5.9.6V231h3v4h15.6l1.4-4.8 1.5-4.7.3 6.9.3 6.8 2.2-.6 2.2-.6h4.5l.9-2.3.9-2.2.5-3.5.5-3.5L193 216l2.2-10.5 1.4-1.1 1.4-1.1V189l5.3-3.3 5.2-3.3 8.5-4.8 8.6-4.7 2.2-4.2 2.2-4.2v-1.3l-3-1.1-3-1-.1-3.3-.1-3.3-.8 3-.8 3-.2-4.5-.2-4.5-.4-6.5-.4-6.5-.2-1.3-.1-1.2H218v7.2l-.1 7.3-1.3 1.7-1.3 1.8H212v-5h-3.6l-1.1 1.1-1.1 1.1-4-2.7-4-2.6-.6-2.2-.6-2.2v-9.2l-2.1-1.9-2.1-1.9-1.3-3.2-1.4-3.3H186v-4.1l-1.2-1.5-1.3-1.6-2.2-2.3-2.3-2.2v-7.9l-1.5-5.7-1.5-5.8v-5.7l1.5-.6 1.5-.5v-2.4l-1.7-1.9-1.6-1.8h2.3l-.1-11.3V55.5L171.1 38l-6.9-17.5-1.6-.3-1.6-.3v-1.7l1.5-.6 1.5-.5v-6l-1-.6-1-.6V3.5L161 2l-1-1.5-1 1.5-1 1.5V0h-1l-2.2 2.2-2.2 2.2-.4-1.2-.4-1.2-.9.6-.9.5v3.6l-2.2-.1-2.3-.1V0H144v2h-3v2.1l-2.2-1.5-2.2-1.6h-2.8l.4 4 .4 4H133v2.6l-1.7 2.4-1.8 2.5-1.3 23-1.2 23-.6 14-.6 14-.9 1-.9.9v-4.2l-1.5-1.2-1.5-1.2V90h-2.2l.4-1.8.5-1.8h-9.4l.5 1.8.4 1.8H109v-4.2l-1.5 1.2-1.5 1.2v4.2l-.9-.9-.9-1-.6-14-.6-14-1.2-23-1.3-23-1.7-2.5-1.8-2.4V9h-1.6l.4-4 .4-4h-2.8l-2.2 1.6L89 4.1V2h-3V0h-1.7l.5 2.9.4 2.9-1.3.7-1.2.8-2-2.7-2-2.8L78 3l-.8 1.2-2.1-2.1L73 0h-1z"/></svg>