<svg xmlns="http://www.w3.org/2000/svg" width="400" height="533.333"><path d="M191.667 26.345c0 .74-.851 1.019-1.89.62-1.785-.685-6.444 6.801-6.444 10.354 0 .816-.781 1.183-1.737.816-2.164-.83-4.486 4.343-7.196 16.032-1.565 6.751-3.12 9.903-6.167 12.5-3.42 2.913-4.57 5.707-7.151 17.361-8.882 40.11-11.423 53.724-11.798 63.194-.275 6.962-1.64 13.79-4.115 20.587-3.009 8.262-3.439 10.929-2.293 14.218 1.177 3.375-.828 14.293-3.229 17.593-.126.172-4.153-.487-8.949-1.465-7.516-1.533-8.415-2.032-6.514-3.609 1.749-1.452 2.205-4.743 2.205-15.906 0-7.741.601-16.171 1.336-18.733.735-2.562 1.428-11.863 1.541-20.669.112-8.805.734-17.857 1.381-20.114 3.125-10.896 3.178-37.741.08-40.52-1.622-1.455-2.949-4.096-2.949-5.869 0-1.773-1.248-5.27-2.773-7.771-1.525-2.501-2.775-5.641-2.778-6.978-.002-1.337-.869-2.43-1.926-2.43s-2.265-1.313-2.684-2.918c-1.154-4.411-3.705-1.771-3.904 4.041-.113 3.312-.615 1.692-1.418-4.576-1.394-10.876-3.4-13.761-9.792-14.082-5.107-.257-8.013 2.117-8.168 6.671-.061 1.774-.425 2.443-.81 1.489-.994-2.464-4.31-2.15-7.351.694-3.416 3.195-8.727 17.239-7.124 18.841 1.706 1.707.097 6.415-7.587 22.195l-6.624 13.605 5.238 5.365 5.239 5.365-3.521 10.197c-1.936 5.608-3.569 9.102-3.63 7.765-.169-3.757-2.724-2.871-3.773 1.309-.912 3.635-.97 3.655-2.065.695-1.353-3.659-3.799-3.971-4.82-.615-.407 1.337-1.609 4.306-2.672 6.597-1.062 2.292-4.046 9.48-6.631 15.973s-6.363 14.236-8.396 17.207c-2.033 2.972-3.697 5.94-3.697 6.598 0 .657-.884 1.195-1.965 1.195s-4.362 3.264-7.292 7.254l-5.326 7.255-.492 17.109c-.506 17.614.964 25.326 4.827 25.326 1.053 0 1.915.938 1.915 2.083a2.09 2.09 0 0 0 2.083 2.084c1.146 0 2.083.693 2.083 1.539 0 .949 1.333 1.205 3.473.668 2.549-.64 3.472-.317 3.472 1.216 0 3.333-10.172 22.966-11.899 22.966-2.74 0-6.899 10.992-5.193 13.723 1.164 1.865.09 5.804-4.934 18.093l-6.422 15.709 5.196 4.362c2.858 2.4 5.196 5.071 5.196 5.937 0 .866 1.201 1.888 2.669 2.272 3.35.876 5.163 11.027 2.989 16.73-2.778 7.286-1.922 10.386 3.661 13.251 4.1 2.103 5.164 3.457 5.208 6.63.047 3.304.714 4.063 3.889 4.428 3.607.415 3.712.614 1.776 3.377-1.253 1.79-1.573 3.521-.818 4.43.682.821 5.289 15.634 10.238 32.917 10.273 35.876 15.107 45.448 18.493 36.623.511-1.332 1.879-1.802 3.824-1.314 1.92.482 4.231-.283 6.318-2.093 3.495-3.032 7.031-3.768 7.031-1.464 0 .764 1.25 1.389 2.778 1.389s2.778.625 2.778 1.389c0 .763.937 1.388 2.083 1.388 1.146 0 2.083 1.199 2.083 2.665 0 4.771 1.623 7.058 5.01 7.058 1.828 0 3.324.625 3.324 1.389 0 .763 1.243 1.388 2.763 1.388 2.649 0 2.594.465-1.327 11.208l-4.091 11.208 4.795 4.21c4.586 4.026 4.76 4.523 3.987 11.362-.803 7.109-.767 7.191 5.984 13.777l6.792 6.626 4.784-2.377c6.192-3.075 8.257-5.195 8.257-8.475 0-3.3 5.17-18.542 6.864-20.236.686-.685 6.931-1.491 13.88-1.791 14.187-.612 13.559-1.048 16.762 11.641l1.49 5.903h9.575c8.201 0 9.696-.38 10.416-2.649 1.608-5.067 8.196-5.067 9.804 0 .72 2.269 2.215 2.649 10.416 2.649h9.575l1.49-5.903c3.203-12.689 2.575-12.253 16.762-11.641 6.949.3 13.194 1.106 13.88 1.791 1.694 1.694 6.864 16.936 6.864 20.236 0 3.28 2.065 5.4 8.257 8.475l4.784 2.377 6.792-6.626c6.751-6.586 6.787-6.668 5.984-13.777-.773-6.839-.599-7.336 3.987-11.362l4.795-4.21-4.091-11.208c-3.921-10.743-3.976-11.208-1.327-11.208 1.52 0 2.763-.625 2.763-1.388 0-.764 1.496-1.389 3.324-1.389 3.387 0 5.01-2.287 5.01-7.058 0-1.466.937-2.665 2.083-2.665 1.146 0 2.083-.625 2.083-1.388 0-.764 1.25-1.389 2.778-1.389s2.778-.625 2.778-1.389c0-2.304 3.536-1.568 7.031 1.464 2.087 1.81 4.398 2.575 6.318 2.093 1.945-.488 3.313-.018 3.824 1.314 3.386 8.825 8.22-.747 18.493-36.623 4.949-17.283 9.556-32.096 10.238-32.917.755-.909.435-2.64-.818-4.43-1.936-2.763-1.831-2.962 1.776-3.377 3.175-.365 3.842-1.124 3.889-4.428.044-3.173 1.108-4.527 5.208-6.63 5.583-2.865 6.439-5.965 3.661-13.251-2.174-5.703-.361-15.854 2.989-16.73 1.468-.384 2.669-1.406 2.669-2.272 0-.866 2.338-3.537 5.196-5.937l5.196-4.362-6.422-15.709c-5.024-12.289-6.098-16.228-4.934-18.093 1.706-2.731-2.453-13.723-5.193-13.723-1.727 0-11.899-19.633-11.899-22.966 0-1.533.923-1.856 3.472-1.216 2.14.537 3.473.281 3.473-.668 0-.846.937-1.539 2.083-1.539a2.09 2.09 0 0 0 2.083-2.084c0-1.145.862-2.083 1.915-2.083 3.863 0 5.333-7.712 4.827-25.326l-.492-17.109-5.326-7.255c-2.93-3.99-6.211-7.254-7.292-7.254-1.081 0-1.965-.538-1.965-1.195 0-.658-1.664-3.626-3.697-6.598-2.033-2.971-5.811-10.714-8.396-17.207-2.585-6.493-5.569-13.681-6.631-15.973-1.063-2.291-2.265-5.26-2.672-6.597-1.021-3.356-3.467-3.044-4.82.615-1.095 2.96-1.153 2.94-2.065-.695-1.049-4.18-3.604-5.066-3.773-1.309-.061 1.337-1.694-2.157-3.63-7.765l-3.521-10.197 5.239-5.365 5.238-5.365-6.624-13.605c-7.684-15.78-9.293-20.488-7.587-22.195 1.603-1.602-3.708-15.646-7.124-18.841-3.041-2.844-6.357-3.158-7.351-.694-.385.954-.749.285-.81-1.489-.155-4.554-3.061-6.928-8.168-6.671-6.392.321-8.398 3.206-9.792 14.082-.803 6.268-1.305 7.888-1.418 4.576-.199-5.812-2.75-8.452-3.904-4.041-.419 1.605-1.627 2.918-2.684 2.918-1.057 0-1.924 1.093-1.926 2.43-.003 1.337-1.253 4.477-2.778 6.978-1.525 2.501-2.773 5.998-2.773 7.771 0 1.773-1.327 4.414-2.949 5.869-3.098 2.779-3.045 29.624.08 40.52.647 2.257 1.269 11.309 1.381 20.114.113 8.806.806 18.107 1.541 20.669.735 2.562 1.336 10.992 1.336 18.733 0 11.163.456 14.454 2.205 15.906 1.901 1.577 1.002 2.076-6.514 3.609-4.796.978-8.823 1.637-8.949 1.465-2.401-3.3-4.406-14.218-3.229-17.593 1.146-3.289.716-5.956-2.293-14.218-2.475-6.797-3.84-13.625-4.115-20.587-.375-9.47-2.916-23.084-11.798-63.194-2.581-11.654-3.731-14.448-7.151-17.361-3.047-2.597-4.602-5.749-6.167-12.5-2.71-11.689-5.032-16.862-7.196-16.032-.956.367-1.737 0-1.737-.816 0-3.553-4.659-11.039-6.444-10.354-1.039.399-1.89.12-1.89-.62 0-1.967-3.814-1.645-4.635.391-.561 1.389-.723 1.389-.811 0-.06-.955-1.307-1.736-2.771-1.736s-2.978.781-3.363 1.736c-.56 1.389-.722 1.389-.81 0-.128-2.018-4.276-2.398-4.276-.391" fill-rule="evenodd"/></svg>