<?xml version="1.0" encoding="UTF-8" standalone="no"?>
<svg
   viewBox="0 0 256 256"
   xml:space="preserve"
   version="1.1"
   id="svg7"
   sodipodi:docname="telos_faction_crest.svg"
   inkscape:version="1.3 (0e150ed6c4, 2023-07-21)"
   xmlns:inkscape="http://www.inkscape.org/namespaces/inkscape"
   xmlns:sodipodi="http://sodipodi.sourceforge.net/DTD/sodipodi-0.dtd"
   xmlns="http://www.w3.org/2000/svg"
   xmlns:svg="http://www.w3.org/2000/svg"><defs
   id="defs7" /><sodipodi:namedview
   id="namedview7"
   pagecolor="#ffffff"
   bordercolor="#666666"
   borderopacity="1.0"
   inkscape:showpageshadow="2"
   inkscape:pageopacity="0.0"
   inkscape:pagecheckerboard="0"
   inkscape:deskcolor="#d1d1d1"
   inkscape:zoom="4.5820312"
   inkscape:cx="128"
   inkscape:cy="110.54049"
   inkscape:window-width="1350"
   inkscape:window-height="1237"
   inkscape:window-x="506"
   inkscape:window-y="892"
   inkscape:window-maximized="0"
   inkscape:current-layer="svg7" />&#10;    &#10;    <path
   fill="#60A2E9"
   d="M27.686 142.382C20.427 86.803 59.77 34.804 113.863 27.952c58.64-7.428 109.366 31 116.388 88.17 5.657 46.05-17.993 88.791-59.348 107.258-40.817 18.226-89.346 7.76-118.691-25.722-13.782-15.724-21.954-34.031-24.526-55.276m188.633 33.343c9.277-18.282 13.194-37.482 10.825-58.02-6.192-53.672-55.635-93.094-109.25-86.862-51.486 5.984-90.28 51.578-87.74 103.12 2.568 52.128 45.37 94.63 97.13 94.756 39.362.095 69.148-17.914 89.035-52.994z"
   id="path2" />&#10;    &#10;    <path
   fill="#66AEFA"
   d="M142.864 44.077c7.675 13.052 15.417 26.067 23.013 39.167 13.53 23.337 26.977 46.723 40.445 70.097.913 1.585 2.096 3.163 2.432 4.886.273 1.403-.102 3.396-.999 4.415-.704.8-3.017 1.157-3.981.604-10.239-5.868-20.44-11.814-30.447-18.068-3.336-2.084-4.03-5.695-3.724-9.717 1.43-18.755-7.475-33.823-24.5-41.885-5.966-2.825-9.183-7.116-8.96-14.1.32-9.988-.003-19.996.16-29.993.03-1.825 1.07-3.633 2.39-5.496 1.886 0 3.028.044 4.17.09zM72.306 118.308c13.488-23.373 26.725-46.47 40.184-69.436 1.157-1.974 3.787-3.085 5.734-4.597 1.184 2.342 3.29 4.646 3.39 7.033.394 9.474-.04 18.98.23 28.464.191 6.7-2.71 10.936-8.62 13.725-13.054 6.162-21.286 16.275-23.891 30.576-.649 3.56-.822 7.331-.445 10.924.608 5.795-1.945 9.686-6.53 12.44-8.7 5.225-17.466 10.35-26.364 15.226-1.586.87-3.943.332-5.944.444.044-2.144-.669-4.707.25-6.366 7.094-12.806 14.503-25.437 22.006-38.433z"
   id="path4" />&#10;    <path
   fill="#67AEFB"
   d="M190.113 173.865c2.787 2.31 7.856 2.795 6.656 7.36-1.286 4.888-6.047 3.139-9.431 3.148-39.144.1-78.288.125-117.43-.06-2.967-.013-7.725-.995-8.527-2.867-1.901-4.434 3.289-5.339 5.98-7.006 7.354-4.556 15.001-8.635 22.425-13.082 4.737-2.838 9.205-2.762 13.408.73 14.321 11.894 35.24 13.162 51.58.315 4.662-3.665 9.294-3.77 14.302-.77 6.853 4.107 13.802 8.053 21.037 12.232z"
   id="path5" />&#10;    <path
   fill="#66ACF8"
   d="M134.13 112.95c-2.49 3.218-5.608 4.31-8.318 1.805-1.566-1.447-2.604-4.685-2.185-6.779.647-3.238 3.721-4.782 7.004-3.637 3.84 1.34 5.35 4.221 3.499 8.612zM118.267 110.509c1.379 2.539 3.255 4.94 3.143 7.243-.071 1.472-2.984 3.733-4.807 3.929-1.8.193-4.497-1.323-5.558-2.917-.919-1.38-.9-4.744.14-5.756 1.6-1.556 4.43-1.849 7.082-2.5zM137.795 111.795c3.043-2.369 6.16-2.625 8.219.088 1.236 1.628 1.797 4.74 1.12 6.635-1.208 3.39-4.323 4.392-7.755 2.765-3.52-1.67-4.077-4.72-1.584-9.488zM108.049 134.132c-3.209-2.493-4.322-5.605-1.803-8.319 1.454-1.565 4.693-2.605 6.786-2.183 3.228.65 4.78 3.713 3.633 7.006-1.344 3.86-4.239 5.32-8.616 3.496zM127.461 134.786c-4.679-3.091-5.71-6.384-3.101-9.438 2.403-2.814 5.588-3.433 8.237-.852 1.386 1.35 2.315 4.161 1.988 6.06-.568 3.289-3.29 4.743-7.124 4.23zM152.784 127.469c.46 4.315-1.358 7.31-5.165 7.221-2.163-.05-5.525-2.342-6.04-4.248-.51-1.878 1.297-5.477 3.149-6.66 3.366-2.15 6.24-.132 8.056 3.687zM116.226 135.076c4.326.112 7.022 2.234 6.518 6.058-.273 2.07-2.754 5.176-4.52 5.379-2.103.241-5.552-1.576-6.557-3.483-1.978-3.751.314-6.547 4.559-7.954zM142.535 146.787c-4.567.416-7.572-1.56-7.251-5.648.166-2.12 2.792-5.326 4.728-5.669 1.941-.344 5.342 1.74 6.429 3.693 1.789 3.214-.286 5.95-3.906 7.624zM128.226 141.076c4.327.112 7.024 2.238 6.526 6.057-.27 2.07-2.758 5.174-4.528 5.38-2.101.243-5.55-1.576-6.557-3.483-1.983-3.755.317-6.545 4.559-7.954z"
   id="path6" />&#10;    <path
   fill="#5185BC"
   d="M142.783 43.782c-1.062.25-2.204.204-3.759.037.95-.192 2.314-.262 3.759-.037z"
   id="path7" /></svg>
