<svg xmlns="http://www.w3.org/2000/svg" viewBox="0 0 256 256" xml:space="preserve">
    <path fill="#19191A00" d="M148 257H1V1h256v256H148M27.744 142.834c2.514 20.793 10.686 39.1 24.468 54.824 29.345 33.483 77.874 43.948 118.69 25.722 41.356-18.467 65.006-61.208 59.35-107.258-7.023-57.17-57.748-95.598-116.39-88.17-54.092 6.852-93.435 58.851-86.118 114.882z"/>
    <path fill="#60A2E9"
          d="M27.686 142.382C20.427 86.803 59.77 34.804 113.863 27.952c58.64-7.428 109.366 31 116.388 88.17 5.657 46.05-17.993 88.791-59.348 107.258-40.817 18.226-89.346 7.76-118.691-25.722-13.782-15.724-21.954-34.031-24.526-55.276m188.633 33.343c9.277-18.282 13.194-37.482 10.825-58.02-6.192-53.672-55.635-93.094-109.25-86.862-51.486 5.984-90.28 51.578-87.74 103.12 2.568 52.128 45.37 94.63 97.13 94.756 39.362.095 69.148-17.914 89.035-52.994z"/>
    <path fill="#1A1B1D00"
          d="M216.154 176.057c-19.722 34.748-49.508 52.757-88.87 52.662-51.76-.125-94.562-42.628-97.13-94.755-2.54-51.543 36.254-97.137 87.74-103.121 53.615-6.232 103.058 33.19 109.25 86.863 2.37 20.537-1.548 39.737-10.99 58.351m-73.452-132.57c-1.364.07-2.727.14-4.754.546-.574 1.817-1.615 3.625-1.645 5.45-.163 9.997.16 20.005-.16 29.993-.223 6.984 2.994 11.275 8.96 14.1 17.025 8.062 25.93 23.13 24.5 41.885-.307 4.022.388 7.633 3.724 9.717 10.006 6.254 20.208 12.2 30.447 18.068.964.553 3.277.196 3.981-.604.897-1.019 1.272-3.012.999-4.415-.336-1.723-1.52-3.301-2.432-4.886-13.468-23.374-26.914-46.76-40.445-70.097-7.596-13.1-15.338-26.115-23.175-39.757m-70.588 75.132c-7.311 12.685-14.72 25.316-21.814 38.122-.919 1.66-.206 4.222-.25 6.366 2.001-.112 4.358.425 5.944-.444 8.898-4.876 17.664-10.001 26.364-15.226 4.585-2.754 7.138-6.645 6.53-12.44-.377-3.593-.204-7.364.445-10.924 2.605-14.301 10.837-24.414 23.892-30.576 5.91-2.79 8.81-7.024 8.62-13.725-.27-9.483.163-18.99-.232-28.464-.1-2.387-2.205-4.691-3.39-7.033-1.946 1.512-4.576 2.623-5.733 4.597-13.46 22.966-26.696 46.063-40.376 69.747M189.786 173.7c-6.908-4.015-13.857-7.961-20.71-12.067-5.008-3-9.64-2.896-14.301.769-16.34 12.847-37.26 11.58-51.58-.316-4.204-3.49-8.672-3.567-13.409-.729-7.424 4.447-15.07 8.526-22.425 13.082-2.691 1.667-7.881 2.572-5.98 7.006.802 1.872 5.56 2.854 8.527 2.868 39.142.184 78.286.159 117.43.059 3.384-.01 8.145 1.74 9.43-3.149 1.201-4.564-3.868-5.048-6.982-7.523m-55.47-61.095c1.664-4.046.156-6.927-3.685-8.267-3.283-1.145-6.357.4-7.004 3.637-.419 2.094.619 5.332 2.185 6.78 2.71 2.504 5.828 1.412 8.504-2.15m-16.394-2.276c-2.308.83-5.136 1.122-6.736 2.678-1.04 1.012-1.06 4.376-.14 5.756 1.06 1.594 3.758 3.11 5.557 2.917 1.823-.196 4.736-2.457 4.807-3.929.112-2.304-1.764-4.704-3.488-7.422m19.596 1.742c-2.216 4.49-1.66 7.542 1.861 9.21 3.432 1.628 6.547.626 7.756-2.764.676-1.895.115-5.007-1.121-6.635-2.06-2.713-5.176-2.457-8.496.19m-29.125 22.246c4.033 1.637 6.928.178 8.272-3.683 1.146-3.293-.405-6.355-3.633-7.006-2.093-.422-5.332.618-6.786 2.183-2.52 2.714-1.406 5.826 2.147 8.506m19.447.571c3.454.409 6.177-1.045 6.745-4.334.327-1.899-.602-4.71-1.988-6.06-2.65-2.58-5.834-1.962-8.237.852-2.61 3.054-1.578 6.347 3.48 9.542m24.834-7.8c-1.705-3.44-4.58-5.458-7.946-3.308-1.852 1.183-3.658 4.782-3.15 6.66.516 1.906 3.878 4.198 6.041 4.248 3.807.09 5.626-2.906 5.055-7.6m-36.834 8.027c-3.86 1.366-6.15 4.162-4.173 7.913 1.005 1.907 4.454 3.724 6.557 3.483 1.766-.203 4.247-3.309 4.52-5.379.504-3.824-2.192-5.946-6.904-6.017m27.076 11.566c3.24-1.57 5.314-4.306 3.525-7.52-1.087-1.952-4.488-4.037-6.43-3.693-1.935.343-4.56 3.55-4.727 5.67-.321 4.087 2.684 6.063 7.632 5.543m-15.075-5.565c-3.857 1.367-6.157 4.157-4.174 7.912 1.006 1.907 4.456 3.726 6.557 3.482 1.77-.205 4.259-3.31 4.528-5.379.498-3.82-2.2-5.945-6.911-6.015z"/>
    <path fill="#66AEFA"
          d="M142.864 44.077c7.675 13.052 15.417 26.067 23.013 39.167 13.53 23.337 26.977 46.723 40.445 70.097.913 1.585 2.096 3.163 2.432 4.886.273 1.403-.102 3.396-.999 4.415-.704.8-3.017 1.157-3.981.604-10.239-5.868-20.44-11.814-30.447-18.068-3.336-2.084-4.03-5.695-3.724-9.717 1.43-18.755-7.475-33.823-24.5-41.885-5.966-2.825-9.183-7.116-8.96-14.1.32-9.988-.003-19.996.16-29.993.03-1.825 1.07-3.633 2.39-5.496 1.886 0 3.028.044 4.17.09zM72.306 118.308c13.488-23.373 26.725-46.47 40.184-69.436 1.157-1.974 3.787-3.085 5.734-4.597 1.184 2.342 3.29 4.646 3.39 7.033.394 9.474-.04 18.98.23 28.464.191 6.7-2.71 10.936-8.62 13.725-13.054 6.162-21.286 16.275-23.891 30.576-.649 3.56-.822 7.331-.445 10.924.608 5.795-1.945 9.686-6.53 12.44-8.7 5.225-17.466 10.35-26.364 15.226-1.586.87-3.943.332-5.944.444.044-2.144-.669-4.707.25-6.366 7.094-12.806 14.503-25.437 22.006-38.433z"/>
    <path fill="#67AEFB"
          d="M190.113 173.865c2.787 2.31 7.856 2.795 6.656 7.36-1.286 4.888-6.047 3.139-9.431 3.148-39.144.1-78.288.125-117.43-.06-2.967-.013-7.725-.995-8.527-2.867-1.901-4.434 3.289-5.339 5.98-7.006 7.354-4.556 15.001-8.635 22.425-13.082 4.737-2.838 9.205-2.762 13.408.73 14.321 11.894 35.24 13.162 51.58.315 4.662-3.665 9.294-3.77 14.302-.77 6.853 4.107 13.802 8.053 21.037 12.232z"/>
    <path fill="#66ACF8"
          d="M134.13 112.95c-2.49 3.218-5.608 4.31-8.318 1.805-1.566-1.447-2.604-4.685-2.185-6.779.647-3.238 3.721-4.782 7.004-3.637 3.84 1.34 5.35 4.221 3.499 8.612zM118.267 110.509c1.379 2.539 3.255 4.94 3.143 7.243-.071 1.472-2.984 3.733-4.807 3.929-1.8.193-4.497-1.323-5.558-2.917-.919-1.38-.9-4.744.14-5.756 1.6-1.556 4.43-1.849 7.082-2.5zM137.795 111.795c3.043-2.369 6.16-2.625 8.219.088 1.236 1.628 1.797 4.74 1.12 6.635-1.208 3.39-4.323 4.392-7.755 2.765-3.52-1.67-4.077-4.72-1.584-9.488zM108.049 134.132c-3.209-2.493-4.322-5.605-1.803-8.319 1.454-1.565 4.693-2.605 6.786-2.183 3.228.65 4.78 3.713 3.633 7.006-1.344 3.86-4.239 5.32-8.616 3.496zM127.461 134.786c-4.679-3.091-5.71-6.384-3.101-9.438 2.403-2.814 5.588-3.433 8.237-.852 1.386 1.35 2.315 4.161 1.988 6.06-.568 3.289-3.29 4.743-7.124 4.23zM152.784 127.469c.46 4.315-1.358 7.31-5.165 7.221-2.163-.05-5.525-2.342-6.04-4.248-.51-1.878 1.297-5.477 3.149-6.66 3.366-2.15 6.24-.132 8.056 3.687zM116.226 135.076c4.326.112 7.022 2.234 6.518 6.058-.273 2.07-2.754 5.176-4.52 5.379-2.103.241-5.552-1.576-6.557-3.483-1.978-3.751.314-6.547 4.559-7.954zM142.535 146.787c-4.567.416-7.572-1.56-7.251-5.648.166-2.12 2.792-5.326 4.728-5.669 1.941-.344 5.342 1.74 6.429 3.693 1.789 3.214-.286 5.95-3.906 7.624zM128.226 141.076c4.327.112 7.024 2.238 6.526 6.057-.27 2.07-2.758 5.174-4.528 5.38-2.101.243-5.55-1.576-6.557-3.483-1.983-3.755.317-6.545 4.559-7.954z"/>
    <path fill="#5185BC" d="M142.783 43.782c-1.062.25-2.204.204-3.759.037.95-.192 2.314-.262 3.759-.037z"/></svg>